<?xml version="1.0" encoding="UTF-8"?>
<svg width="16px" height="16px" viewBox="0 0 16 16" version="1.1" xmlns="http://www.w3.org/2000/svg" xmlns:xlink="http://www.w3.org/1999/xlink">
  <!-- Generator: Sketch 41.2 (35397) - http://www.bohemiancoding.com/sketch -->
  <g id="mask-icon" fill="#000000">
    <path d="M14.8911615,9.30075707 C16.0499674,9.99139288 15.9020471,10.6381786 15.8788064,10.6381786 C15.8555658,10.6381786 13.5568479,9.17457874 13.5568479,9.17457874 C12.5827145,8.5517136 11.4044857,8.71888663 10.7351238,9.51475589 C9.89169659,10.5175884 10.210438,12.1065914 8.70705685,13.3103467 C7.2036757,14.5141019 2.72570098,15.118762 2.72570098,15.118762 L4.10859239,11.2914943 L4.13769698,11.2086479 C3.77590659,10.9353127 3.41533969,10.6248368 3.06290789,10.2721739 C0.277264396,7.48470347 0.112447698,4.17560723 0.102702023,3.78460772 C0.481079468,3.77472951 3.30962519,3.91508083 5.92924449,6.10899862 C4.65952608,2.97596219 5.14999604,0.402685353 5.22036544,0.0762896554 C5.55900843,0.20655467 8.12082901,1.41334359 9.91113872,4.55831834 C9.34563973,4.69476797 8.61792765,5.05525962 8.0196663,5.72165525 C8.4741871,5.42075699 8.43583364,5.43653787 8.92867821,5.18613601 C9.25889571,5.01836085 9.57961511,4.90457487 9.79817383,4.84718926 C10.5381473,4.61731971 11.4155106,4.52081838 12.2437862,4.86944113 C14.2210004,5.70165419 14.0944444,7.95767987 14.0944444,7.95767987 C14.0944444,7.95767987 14.0944443,8.29720589 14.0944444,8.42575542 C14.0944448,8.74091321 14.5249216,9.082482 14.8911615,9.30075707 Z" id="Bird"></path>
  </g>
</svg>
